<svg width="132" height="36" viewBox="0 0 132 36" fill="none" xmlns="http://www.w3.org/2000/svg">
<g clip-path="url(#clip0_394_1519)">
<circle cx="16" cy="18" r="16" fill="#00B14F"/>
<mask id="path-2-inside-1_394_1519" fill="white">
<path d="M16 29C18.6652 29 21.3304 26.8953 23.0607 25.179C23.4599 24.7831 22.9792 24.2122 22.4822 24.4749C20.6013 25.469 18.0181 26.6 16 26.6C13.9819 26.6 11.3987 25.469 9.5178 24.4749C9.02076 24.2122 8.54012 24.7831 8.93926 25.179C10.6696 26.8953 13.3348 29 16 29Z"/>
</mask>
<path d="M23.0607 25.179L25.1734 27.3089L25.1734 27.3089L23.0607 25.179ZM8.93926 25.179L6.82658 27.3089L6.82658 27.3089L8.93926 25.179ZM9.5178 24.4749L10.9197 21.8226L10.9197 21.8226L9.5178 24.4749ZM22.4822 24.4749L21.0803 21.8226L21.0803 21.8226L22.4822 24.4749ZM20.948 23.0491C20.1783 23.8126 19.2652 24.5953 18.3201 25.1712C17.3491 25.7627 16.5672 26 16 26V32C18.098 32 19.9813 31.1849 21.4419 30.2951C22.9282 29.3895 24.2129 28.2616 25.1734 27.3089L20.948 23.0491ZM16 26C15.4328 26 14.6509 25.7627 13.6799 25.1712C12.7348 24.5953 11.8217 23.8126 11.052 23.0491L6.82658 27.3089C7.78708 28.2616 9.07177 29.3895 10.5581 30.2951C12.0187 31.1849 13.902 32 16 32V26ZM8.11593 27.1272C9.1314 27.6639 10.3827 28.2629 11.6934 28.7336C12.967 29.1911 14.4921 29.6 16 29.6V23.6C15.4899 23.6 14.7143 23.4434 13.7216 23.0868C12.7658 22.7436 11.7851 22.28 10.9197 21.8226L8.11593 27.1272ZM16 29.6C17.5079 29.6 19.033 29.1911 20.3066 28.7336C21.6173 28.2629 22.8686 27.6639 23.8841 27.1272L21.0803 21.8226C20.2149 22.28 19.2342 22.7436 18.2784 23.0868C17.2857 23.4434 16.5101 23.6 16 23.6V29.6ZM25.1734 27.3089C25.7674 26.7197 26.1776 25.8995 26.2071 24.9593C26.2356 24.0551 25.905 23.2526 25.4152 22.663C24.4114 21.4547 22.6321 21.0024 21.0803 21.8226L23.8841 27.1272C22.8293 27.6847 21.5389 27.3865 20.7999 26.4969C20.4425 26.0667 20.1883 25.4648 20.2101 24.7708C20.2331 24.0407 20.5536 23.4403 20.948 23.0491L25.1734 27.3089ZM11.052 23.0491C11.4464 23.4403 11.7669 24.0407 11.7899 24.7708C11.8117 25.4648 11.5575 26.0667 11.2001 26.4969C10.4611 27.3865 9.17068 27.6847 8.11593 27.1272L10.9197 21.8226C9.36787 21.0024 7.5886 21.4547 6.58483 22.663C6.09504 23.2526 5.76443 24.0551 5.79286 24.9593C5.82241 25.8995 6.23259 26.7197 6.82658 27.3089L11.052 23.0491Z" fill="white" mask="url(#path-2-inside-1_394_1519)"/>
<path d="M21.7117 11.3158C21.3918 10.9936 21.3918 10.4773 21.7117 10.1552L23.4302 8.02632L23.4302 7.98937C23.8655 7.55866 24.5713 7.55866 25.0067 7.98937C25.442 8.42007 25.442 9.11837 25.0067 9.54907L22.9819 11.3158L22.9063 11.3828C22.7482 11.5077 22.5511 11.5766 22.3468 11.5766C22.1085 11.5766 21.88 11.4828 21.7117 11.3158ZM8.6665 17.185C8.6665 15.2892 9.4277 13.4711 10.7826 12.1306C12.1376 10.79 13.9753 10.0369 15.8914 10.0369C19.8817 10.0369 23.1164 13.2372 23.1164 17.185C23.1164 21.1327 19.8817 24.333 15.8914 24.333C11.9012 24.333 8.6665 21.1327 8.6665 17.185Z" fill="white"/>
</g>
<path d="M47.2 27.24C45.52 27.24 44.096 26.816 42.928 25.968C41.76 25.12 40.92 23.904 40.408 22.32L43.624 21.096C43.976 22.12 44.44 22.872 45.016 23.352C45.608 23.832 46.336 24.072 47.2 24.072C48.24 24.072 49.072 23.736 49.696 23.064C50.336 22.392 50.656 21.496 50.656 20.376V10.2H54.136V20.472C54.136 21.832 53.848 23.024 53.272 24.048C52.696 25.056 51.888 25.84 50.848 26.4C49.808 26.96 48.592 27.24 47.2 27.24ZM62.527 27.24C61.279 27.24 60.151 26.952 59.143 26.376C58.135 25.8 57.335 25.024 56.743 24.048C56.151 23.072 55.855 21.976 55.855 20.76C55.855 19.544 56.143 18.448 56.719 17.472C57.311 16.48 58.111 15.696 59.119 15.12C60.143 14.544 61.279 14.256 62.527 14.256C63.775 14.256 64.903 14.544 65.911 15.12C66.935 15.696 67.735 16.48 68.311 17.472C68.903 18.448 69.199 19.544 69.199 20.76C69.199 21.976 68.903 23.072 68.311 24.048C67.735 25.024 66.943 25.8 65.935 26.376C64.927 26.952 63.791 27.24 62.527 27.24ZM62.527 24.384C63.183 24.384 63.767 24.224 64.279 23.904C64.807 23.584 65.223 23.152 65.527 22.608C65.847 22.048 66.007 21.432 66.007 20.76C66.007 20.072 65.847 19.456 65.527 18.912C65.223 18.368 64.807 17.936 64.279 17.616C63.767 17.28 63.183 17.112 62.527 17.112C61.887 17.112 61.303 17.28 60.775 17.616C60.247 17.936 59.831 18.368 59.527 18.912C59.223 19.456 59.071 20.072 59.071 20.76C59.071 21.432 59.223 22.048 59.527 22.608C59.831 23.152 60.247 23.584 60.775 23.904C61.303 24.224 61.887 24.384 62.527 24.384ZM70.9801 27V10.2L74.2681 9.648V15.504C75.2601 14.72 76.4281 14.328 77.7721 14.328C78.9561 14.328 80.0281 14.616 80.9881 15.192C81.9481 15.768 82.7081 16.544 83.2681 17.52C83.8441 18.48 84.1321 19.56 84.1321 20.76C84.1321 21.96 83.8441 23.048 83.2681 24.024C82.6921 24.984 81.9161 25.752 80.9401 26.328C79.9641 26.888 78.8761 27.168 77.6761 27.168C77.0521 27.168 76.4441 27.08 75.8521 26.904C75.2601 26.728 74.7161 26.472 74.2201 26.136V27H70.9801ZM77.2441 24.384C77.9321 24.384 78.5481 24.224 79.0921 23.904C79.6521 23.584 80.0921 23.152 80.4121 22.608C80.7321 22.064 80.8921 21.448 80.8921 20.76C80.8921 20.072 80.7321 19.456 80.4121 18.912C80.0921 18.352 79.6521 17.92 79.0921 17.616C78.5481 17.296 77.9321 17.136 77.2441 17.136C76.6361 17.136 76.0761 17.24 75.5641 17.448C75.0681 17.64 74.6361 17.936 74.2681 18.336V23.208C74.6201 23.576 75.0521 23.864 75.5641 24.072C76.0921 24.28 76.6521 24.384 77.2441 24.384Z" fill="white"/>
<path d="M47.2 27.24C45.52 27.24 44.096 26.816 42.928 25.968C41.76 25.12 40.92 23.904 40.408 22.32L43.624 21.096C43.976 22.12 44.44 22.872 45.016 23.352C45.608 23.832 46.336 24.072 47.2 24.072C48.24 24.072 49.072 23.736 49.696 23.064C50.336 22.392 50.656 21.496 50.656 20.376V10.2H54.136V20.472C54.136 21.832 53.848 23.024 53.272 24.048C52.696 25.056 51.888 25.84 50.848 26.4C49.808 26.96 48.592 27.24 47.2 27.24ZM62.527 27.24C61.279 27.24 60.151 26.952 59.143 26.376C58.135 25.8 57.335 25.024 56.743 24.048C56.151 23.072 55.855 21.976 55.855 20.76C55.855 19.544 56.143 18.448 56.719 17.472C57.311 16.48 58.111 15.696 59.119 15.12C60.143 14.544 61.279 14.256 62.527 14.256C63.775 14.256 64.903 14.544 65.911 15.12C66.935 15.696 67.735 16.48 68.311 17.472C68.903 18.448 69.199 19.544 69.199 20.76C69.199 21.976 68.903 23.072 68.311 24.048C67.735 25.024 66.943 25.8 65.935 26.376C64.927 26.952 63.791 27.24 62.527 27.24ZM62.527 24.384C63.183 24.384 63.767 24.224 64.279 23.904C64.807 23.584 65.223 23.152 65.527 22.608C65.847 22.048 66.007 21.432 66.007 20.76C66.007 20.072 65.847 19.456 65.527 18.912C65.223 18.368 64.807 17.936 64.279 17.616C63.767 17.28 63.183 17.112 62.527 17.112C61.887 17.112 61.303 17.28 60.775 17.616C60.247 17.936 59.831 18.368 59.527 18.912C59.223 19.456 59.071 20.072 59.071 20.76C59.071 21.432 59.223 22.048 59.527 22.608C59.831 23.152 60.247 23.584 60.775 23.904C61.303 24.224 61.887 24.384 62.527 24.384ZM70.9801 27V10.2L74.2681 9.648V15.504C75.2601 14.72 76.4281 14.328 77.7721 14.328C78.9561 14.328 80.0281 14.616 80.9881 15.192C81.9481 15.768 82.7081 16.544 83.2681 17.52C83.8441 18.48 84.1321 19.56 84.1321 20.76C84.1321 21.96 83.8441 23.048 83.2681 24.024C82.6921 24.984 81.9161 25.752 80.9401 26.328C79.9641 26.888 78.8761 27.168 77.6761 27.168C77.0521 27.168 76.4441 27.08 75.8521 26.904C75.2601 26.728 74.7161 26.472 74.2201 26.136V27H70.9801ZM77.2441 24.384C77.9321 24.384 78.5481 24.224 79.0921 23.904C79.6521 23.584 80.0921 23.152 80.4121 22.608C80.7321 22.064 80.8921 21.448 80.8921 20.76C80.8921 20.072 80.7321 19.456 80.4121 18.912C80.0921 18.352 79.6521 17.92 79.0921 17.616C78.5481 17.296 77.9321 17.136 77.2441 17.136C76.6361 17.136 76.0761 17.24 75.5641 17.448C75.0681 17.64 74.6361 17.936 74.2681 18.336V23.208C74.6201 23.576 75.0521 23.864 75.5641 24.072C76.0921 24.28 76.6521 24.384 77.2441 24.384Z" fill="black"/>
<path d="M86.0967 27V10.2H89.5767V16.968H97.3047V10.2H100.785V27H97.3047V20.112H89.5767V27H86.0967ZM108.231 27.24C107.271 27.24 106.415 27.032 105.663 26.616C104.927 26.184 104.343 25.592 103.911 24.84C103.495 24.088 103.287 23.224 103.287 22.248V14.496H106.575V21.768C106.575 22.568 106.807 23.208 107.271 23.688C107.751 24.168 108.391 24.408 109.191 24.408C109.735 24.408 110.223 24.304 110.655 24.096C111.103 23.872 111.471 23.56 111.759 23.16V14.496H115.047V27H111.759V25.992C110.799 26.824 109.623 27.24 108.231 27.24ZM117.369 27V10.2L120.657 9.648V15.504C121.649 14.72 122.817 14.328 124.161 14.328C125.345 14.328 126.417 14.616 127.377 15.192C128.337 15.768 129.097 16.544 129.657 17.52C130.233 18.48 130.521 19.56 130.521 20.76C130.521 21.96 130.233 23.048 129.657 24.024C129.081 24.984 128.305 25.752 127.329 26.328C126.353 26.888 125.265 27.168 124.065 27.168C123.441 27.168 122.833 27.08 122.241 26.904C121.649 26.728 121.105 26.472 120.609 26.136V27H117.369ZM123.633 24.384C124.321 24.384 124.937 24.224 125.481 23.904C126.041 23.584 126.481 23.152 126.801 22.608C127.121 22.064 127.281 21.448 127.281 20.76C127.281 20.072 127.121 19.456 126.801 18.912C126.481 18.352 126.041 17.92 125.481 17.616C124.937 17.296 124.321 17.136 123.633 17.136C123.025 17.136 122.465 17.24 121.953 17.448C121.457 17.64 121.025 17.936 120.657 18.336V23.208C121.009 23.576 121.441 23.864 121.953 24.072C122.481 24.28 123.041 24.384 123.633 24.384Z" fill="white"/>
<path d="M86.0967 27V10.2H89.5767V16.968H97.3047V10.2H100.785V27H97.3047V20.112H89.5767V27H86.0967ZM108.231 27.24C107.271 27.24 106.415 27.032 105.663 26.616C104.927 26.184 104.343 25.592 103.911 24.84C103.495 24.088 103.287 23.224 103.287 22.248V14.496H106.575V21.768C106.575 22.568 106.807 23.208 107.271 23.688C107.751 24.168 108.391 24.408 109.191 24.408C109.735 24.408 110.223 24.304 110.655 24.096C111.103 23.872 111.471 23.56 111.759 23.16V14.496H115.047V27H111.759V25.992C110.799 26.824 109.623 27.24 108.231 27.24ZM117.369 27V10.2L120.657 9.648V15.504C121.649 14.72 122.817 14.328 124.161 14.328C125.345 14.328 126.417 14.616 127.377 15.192C128.337 15.768 129.097 16.544 129.657 17.52C130.233 18.48 130.521 19.56 130.521 20.76C130.521 21.96 130.233 23.048 129.657 24.024C129.081 24.984 128.305 25.752 127.329 26.328C126.353 26.888 125.265 27.168 124.065 27.168C123.441 27.168 122.833 27.08 122.241 26.904C121.649 26.728 121.105 26.472 120.609 26.136V27H117.369ZM123.633 24.384C124.321 24.384 124.937 24.224 125.481 23.904C126.041 23.584 126.481 23.152 126.801 22.608C127.121 22.064 127.281 21.448 127.281 20.76C127.281 20.072 127.121 19.456 126.801 18.912C126.481 18.352 126.041 17.92 125.481 17.616C124.937 17.296 124.321 17.136 123.633 17.136C123.025 17.136 122.465 17.24 121.953 17.448C121.457 17.64 121.025 17.936 120.657 18.336V23.208C121.009 23.576 121.441 23.864 121.953 24.072C122.481 24.28 123.041 24.384 123.633 24.384Z" fill="#02D15E"/>
<defs>
<clipPath id="clip0_394_1519">
<rect width="32" height="32" fill="white" transform="translate(0 2)"/>
</clipPath>
</defs>
</svg>
